<svg width="49" height="49" viewBox="0 0 49 49" fill="none" xmlns="http://www.w3.org/2000/svg">
<g clip-path="url(#clip0_47_67)">
<g filter="url(#filter0_d_47_67)">
<path d="M45.6953 24.7595C45.6656 23.5522 45.5764 22.3251 45.3089 21.1475C44.8728 19.2475 43.8423 17.6839 41.8802 17.0605C39.7299 16.3776 37.8075 17.0209 36.0733 18.3568C35.9842 18.4261 35.9049 18.5646 35.9049 18.6636C35.895 19.9897 35.895 21.3058 35.895 22.622C36.5292 22.4933 37.094 22.3251 37.6688 22.2756C38.4417 22.2064 39.1651 22.3647 39.611 23.097C40.0569 23.8194 40.3344 24.621 40.3443 25.4621C40.374 28.6981 40.374 31.9341 40.3443 35.1602C40.3344 36.5852 39.5813 37.5352 38.2534 37.9904C38.1444 38.03 37.9859 38.1883 37.9859 38.2873C37.9759 39.8806 37.9958 41.4738 38.0057 43.0671C38.0057 43.3342 38.1147 43.453 38.412 43.453C41.2361 43.4827 44.0702 41.5332 45.0512 38.8514C45.725 37.0107 45.8043 35.0909 45.7944 33.1612C45.7746 30.3804 45.7746 27.57 45.6953 24.7595ZM40.1064 10.3015C41.4838 10.1531 42.8712 9.99473 44.2486 9.84629C44.4765 9.8265 44.5954 9.76713 44.5954 9.50983C44.5855 7.90668 44.5954 6.29364 44.5954 4.61133C42.346 4.86862 40.1758 5.10613 38.0156 5.36342C35.5382 5.6504 33.1104 5.95718 30.6331 6.22437C30.5538 7.24365 30.4746 8.31242 30.4052 9.3515C30.3656 10.0046 30.3358 10.6578 30.3061 11.3505C31.6835 11.202 33.0014 11.0635 34.3194 10.925C36.2517 10.7171 38.184 10.5093 40.1064 10.3015ZM34.6167 26.7585C34.686 23.9975 34.7455 21.2365 34.8248 18.4855C34.8644 16.912 34.9338 15.3386 34.9734 13.7552C34.9833 13.2901 34.9734 12.825 34.9734 12.3401C34.7455 12.3401 34.5869 12.3302 34.4383 12.3401C33.2095 12.3995 31.9808 12.4885 30.7421 12.5182C30.3061 12.5281 30.207 12.6963 30.1971 13.0724C30.1773 13.9432 30.1376 14.8042 30.1079 15.675C29.9791 19.0891 29.8503 22.5131 29.7314 25.9272C29.7115 26.3825 29.7314 26.8377 29.7314 27.372C31.297 27.3226 32.7933 27.2731 34.2996 27.2236C34.6167 27.2137 34.6068 26.996 34.6167 26.7585ZM36.5292 37.9409C35.35 37.8123 34.7356 36.6743 34.6959 35.5659C34.6464 34.23 34.6167 32.8841 34.5968 31.5481C34.5968 31.2117 34.4978 31.0731 34.1311 31.083C32.8231 31.1226 31.5051 31.1523 30.1872 31.1622C29.8305 31.1622 29.771 31.3106 29.7809 31.6174C29.8007 32.4685 29.7908 33.3195 29.8205 34.1706C29.8602 35.4768 29.8106 36.8029 30.0187 38.0894C30.2863 39.7321 31.0889 41.1868 32.4862 42.1467C33.7248 42.9978 35.1815 43.3342 36.7769 43.5223C36.7769 41.7014 36.7769 39.9597 36.767 38.2081C36.7769 38.1191 36.6283 37.9508 36.5292 37.9409ZM10.7252 34.1706C8.82264 34.0914 8.2578 33.4878 8.21816 31.5778C8.18844 30.1231 8.21817 28.6684 8.18844 27.2137C8.17853 26.6002 8.10916 25.9767 8.05962 25.3533H3.83823C3.83823 27.6096 3.72923 29.7768 3.85805 31.9341C4.13551 36.3576 6.50385 38.8415 10.6658 39.3462C11.2504 39.4154 11.4684 39.2571 11.4486 38.6732C11.4189 37.4165 11.4288 36.1498 11.4486 34.893C11.4585 34.3487 11.2504 34.1904 10.7252 34.1706ZM3.80851 23.6809H8.07943C8.07943 22.4142 8.05962 21.2069 8.07943 19.9996C8.12898 17.5355 8.82264 16.7735 11.2504 16.4766C11.3 16.4667 11.3396 16.4172 11.4387 16.3578V12.3302C8.54517 12.0036 5.36427 14.0323 4.32379 16.8526C3.49141 19.0792 3.92742 21.385 3.80851 23.6809ZM21.3282 18.4954C21.3381 19.3959 21.3381 20.3063 21.3481 21.2069C21.3481 21.8204 21.3481 22.434 21.3481 23.0376H26.2036C26.2036 20.9496 26.2928 18.9704 26.1739 17.011C26.0748 15.2594 25.2226 13.8245 23.7065 12.8547C22.1507 11.8552 20.4166 11.7067 18.6329 11.8552C18.4644 11.8651 18.1969 12.1323 18.187 12.2906C18.1473 13.5672 18.1672 14.8537 18.1672 16.1698C18.5437 16.1896 18.8113 16.2094 19.0788 16.2193C20.7039 16.2787 21.3084 16.8823 21.3282 18.4954ZM12.3305 43.6113H17.1465V7.53064C15.4916 7.70877 13.916 7.877 12.3305 8.04523V43.6113ZM26.2433 24.7595C24.8262 24.7595 23.5182 24.7793 22.2102 24.7496C21.5958 24.7298 21.3976 24.9475 21.3976 25.5611C21.4174 27.2929 21.358 29.0148 21.3679 30.7466C21.3778 32.9534 20.5256 34.1508 18.4149 34.3586C18.3455 34.3685 18.2762 34.4279 18.2167 34.4576V38.9701C22.3687 39.1977 25.0244 36.9909 25.8667 33.7945C26.6694 30.8257 26.0649 27.8075 26.2433 24.7595Z" fill="url(#paint0_linear_47_67)"/>
</g>
</g>
<defs>
<filter id="filter0_d_47_67" x="-0.204834" y="4.61133" width="50" height="47" filterUnits="userSpaceOnUse" color-interpolation-filters="sRGB">
<feFlood flood-opacity="0" result="BackgroundImageFix"/>
<feColorMatrix in="SourceAlpha" type="matrix" values="0 0 0 0 0 0 0 0 0 0 0 0 0 0 0 0 0 0 127 0" result="hardAlpha"/>
<feOffset dy="4"/>
<feGaussianBlur stdDeviation="2"/>
<feComposite in2="hardAlpha" operator="out"/>
<feColorMatrix type="matrix" values="0 0 0 0 0 0 0 0 0 0 0 0 0 0 0 0 0 0 0.25 0"/>
<feBlend mode="normal" in2="BackgroundImageFix" result="effect1_dropShadow_47_67"/>
<feBlend mode="normal" in="SourceGraphic" in2="effect1_dropShadow_47_67" result="shape"/>
</filter>
<linearGradient id="paint0_linear_47_67" x1="6.39019" y1="24.11" x2="46.0996" y2="24.11" gradientUnits="userSpaceOnUse">
<stop offset="0.0344" stop-color="#273580"/>
<stop offset="0.2149" stop-color="#46317C"/>
<stop offset="0.6071" stop-color="#942673"/>
<stop offset="0.8615" stop-color="#CA1E6D"/>
</linearGradient>
<clipPath id="clip0_47_67">
<rect width="48" height="48" fill="white" transform="translate(0.795166 0.611328)"/>
</clipPath>
</defs>
</svg>
